<svg width="70" height="70" viewBox="0 0 70 70" fill="none" xmlns="http://www.w3.org/2000/svg">
<path d="M11.9983 58.8065C13.0506 58.8065 13.9036 58.2248 13.9036 57.5071C13.9036 56.7895 13.0506 56.2078 11.9983 56.2078C10.9461 56.2078 10.093 56.7895 10.093 57.5071C10.093 58.2248 10.9461 58.8065 11.9983 58.8065Z" fill="#FFA31F"/>
<path d="M67.8125 51.0442L67.0972 50.6242C67.0425 50.5925 61.577 47.3495 60.2186 43.4142L59.9156 42.5425L59.3556 43.2742C59.3381 43.2972 58.5616 44.2575 56.3883 45.3841C54.7794 36.2261 49.3063 25.293 42.1138 20.6314C44.17 20.7977 46.2328 20.627 48.2234 19.903C49.4222 19.4677 48.9048 17.5142 47.6952 17.9561C46.0633 18.55 44.4281 18.7119 42.7962 18.6287C46.8027 14.957 49.9483 9.32969 49.9483 5.215C49.9483 4.22625 49.9483 2.38547 48.4827 2.38547C47.8942 2.38547 47.4184 2.75297 46.7611 3.26047C45.7527 4.03812 44.2302 5.215 41.9934 5.215C41.1414 5.215 39.5817 4.31594 38.3283 3.59406C36.8134 2.72234 35.8455 2.1875 35.0317 2.1875C33.6842 2.1875 31.7034 3.27688 29.9556 4.23828C29.2447 4.62875 28.2723 5.16469 28.0711 5.21609C25.538 5.21609 24.0669 4.04797 23.0912 3.27469C22.5225 2.82187 22.1102 2.49375 21.56 2.49375C20.1184 2.49375 20.1184 4.22297 20.1184 6.22563C20.1184 10.0909 23.0628 15.1933 26.9183 18.6222C24.4891 18.7961 22.0938 19.53 20.4105 21.1608C19.4808 22.0598 20.8895 23.4861 21.8159 22.5892C23.2148 21.233 25.0491 20.6522 27.0112 20.5395C27.067 20.7397 27.1348 20.9366 27.218 21.1302C18.9973 27.0375 13.1578 41.0648 13.1578 50.5345C13.1578 51.4686 13.23 52.3141 13.3416 53.1103C11.2219 52.1686 10.4486 51.3428 10.4333 51.3242L9.86891 50.6734L9.59109 51.4938C8.36281 55.1075 3.02312 58.2422 2.96953 58.2739L2.1875 58.7278L2.98266 59.1577C3.26156 59.3086 3.53828 59.4409 3.81719 59.5842L3.31406 59.9331L3.57984 63.2581L24.4191 67.8125L32.3203 62.7583C33.1177 62.7627 33.9248 62.7648 34.7463 62.7648L43.9819 67.8125L64.8605 61.25V57.7402L64.3081 57.4087C64.5838 57.2337 64.8594 57.0555 65.1339 56.8717L65.8656 56.3828L65.7048 56.3041L66.6356 56.0492L66.7931 52.4005L66.255 52.0188C66.5416 51.847 66.827 51.672 67.1136 51.4905L67.8125 51.0442ZM22.108 6.22563C22.108 5.74 22.1145 5.36156 22.1244 5.06734C22.2917 5.19859 22.4864 5.34188 22.6942 5.48953C23.3319 7.01641 24.5383 9.21484 26.5836 10.5995C29.0686 12.2839 28.7383 10.348 30.0639 8.58047C31.3895 6.81406 32.2864 5.88875 34.5067 10.4322C35.4747 12.413 37.088 6.8775 38.6214 6.06922C39.0272 6.29016 39.4319 6.49578 39.8289 6.67078C42.5786 11.142 43.8528 9.7475 46.2952 6.03094C46.9667 5.63719 47.518 5.215 47.9566 4.87703C47.9588 4.97875 47.9609 5.09141 47.9609 5.21719C47.9609 8.72813 45.092 13.7638 41.5789 17.0483C41.413 16.6267 41.1755 16.2371 40.8767 15.8966C39.4581 14.2898 37.2411 16.0716 36.19 17.2408C34.3252 16.6414 31.2867 14.9909 29.307 15.9359C28.814 16.1647 28.3612 16.4716 27.9661 16.8448C24.7286 13.8939 22.108 9.63375 22.108 6.22563ZM39.8311 18.2284C39.3407 18.1245 38.8531 18.0077 38.3688 17.8784C38.9791 17.3523 39.5391 17.1686 39.7742 17.9506C39.7994 18.0359 39.8147 18.1333 39.8311 18.2284ZM31.5186 18.9077C31.1566 18.8388 30.7847 18.7764 30.4019 18.7272C30.1116 18.5452 29.8274 18.3537 29.5498 18.153C30.5495 17.4825 32.2733 17.8391 33.9205 18.398C33.1078 18.48 32.3061 18.6572 31.5186 18.9077ZM32.0152 21.7952C31.4027 21.9483 30.7355 21.887 30.1591 21.6573C30.3931 21.5338 30.6294 21.4266 30.8656 21.3183C31.2484 21.5031 31.6313 21.6573 32.0152 21.7952ZM11.7841 61.6645C9.17534 60.909 6.64404 59.9082 4.22406 58.6753C5.70828 57.6997 8.94141 55.3405 10.2561 52.5055C11.1573 53.2131 13.2377 54.5037 17.2889 55.4947C17.22 55.6063 17.1358 55.7255 17.0548 55.8425C13.5964 54.9369 11.6298 53.7917 11.5981 53.772L11.1213 53.4877L10.8927 53.9984C10.5919 54.6678 9.88641 54.7684 9.49375 54.7684C9.38438 54.7684 9.31109 54.7608 9.30125 54.7597L8.91078 54.7028L8.76859 55.0769C8.47766 55.8403 7.28328 56.8378 6.84578 57.1583L6.11516 57.6942L6.95078 58.0366C7.26141 58.1634 7.34562 58.2805 7.35 58.3111C7.36094 58.3866 7.22859 58.5856 7.0875 58.7005L6.45094 59.2134L7.19141 59.5558C8.70844 60.2558 10.4267 60.8355 12.145 61.3134C12.0083 61.448 11.8902 61.5628 11.7841 61.6645ZM20.6041 57.5892C22.1331 57.8036 23.8273 57.9392 25.678 57.9392H25.6791C26.0641 57.9392 26.4545 57.9327 26.8527 57.9206C26.8792 58.0032 26.9171 58.0816 26.9653 58.1536C27.0627 58.3013 27.1939 58.4237 27.3602 58.5189L24.5689 60.9044C24.5157 60.9021 24.4625 60.901 24.4092 60.9011C23.1656 60.9011 22.2381 61.3583 21.793 62.172C20.1064 61.9569 18.4276 61.6844 16.7595 61.355C18.1004 60.1618 19.3834 58.9051 20.6041 57.5892ZM8.19109 58.8984C8.30047 58.6917 8.37156 58.4412 8.33328 58.1678C8.29692 57.9211 8.17866 57.6938 7.9975 57.5225C8.48859 57.1014 9.16563 56.4517 9.5375 55.7791C10.383 55.767 11.0808 55.4466 11.5205 54.88C12.2609 55.2672 13.9289 56.0492 16.3931 56.7273C15.3858 57.9906 14.0284 59.4234 12.973 60.4888C11.328 60.0534 9.67094 59.5284 8.19109 58.8984ZM23.7781 63.502L23.5539 63.5031C22.6122 63.5031 19.4917 63.4266 15.3694 62.568C15.5138 62.4455 15.6636 62.3197 15.8025 62.1994C19.1472 62.8983 21.8444 63.198 22.0467 63.2209L22.447 63.2636L22.5706 62.8753C22.8408 62.0375 23.8372 61.9139 24.4081 61.9139C24.5645 61.9139 24.6684 61.9238 24.6805 61.9248L24.8927 61.9478L29.7412 57.8047L28.4452 57.762C28.012 57.7467 27.8294 57.6494 27.7845 57.5827L28.0591 56.8641L27.3 56.8958C26.7466 56.9198 26.2062 56.9319 25.678 56.9319H25.6769C24.15 56.9319 22.7336 56.8312 21.4244 56.6727L21.7284 56.3139C24.3709 56.6672 27.5352 56.8848 31.3556 56.8575C30.4434 58.1372 28.1684 60.8573 23.7781 63.502ZM34.7419 58.7497V60.7458C34.1195 60.7458 33.5136 60.7436 32.9208 60.7392L32.7425 58.4927L31.2616 58.613C32.2591 57.4339 32.6845 56.6475 32.7228 56.5764L33.1242 55.8173L32.2766 55.8327C24.1631 55.9814 18.8716 55.0145 15.5312 53.9405C15.2873 52.9539 15.1462 51.8383 15.1462 50.5356C15.1462 41.6511 20.8239 28.222 28.362 22.7795C29.6975 24.0712 31.7231 24.6367 33.6481 23.38C34.0703 23.1044 34.4378 22.7434 34.7823 22.3595C34.8644 22.3617 34.9486 22.3803 35.0317 22.3803C35.3073 22.3803 35.5873 22.3573 35.8662 22.3223C36.2195 22.4634 36.5652 22.6056 36.8856 22.7467C38.4202 23.4227 39.7305 23.0027 40.6252 22.0708C47.53 26.2489 53.0622 37.3013 54.518 46.235C51.3614 47.4972 46.3542 48.7287 38.6695 48.9453C40.1855 48.0791 41.323 46.6222 40.9139 44.7081C40.4841 42.6847 38.7931 42.1159 37.042 42.023C37.0377 41.0725 37.0377 40.1242 37.0442 39.1738C37.5812 39.4111 38.0964 39.6845 38.5645 39.9766C39.3914 40.4961 40.1395 39.1497 39.3181 38.6302C38.6059 38.1824 37.8457 37.8159 37.0519 37.5375C37.0628 36.4372 37.0683 35.3391 37.0683 34.2409C37.0694 33.2347 35.5742 33.2347 35.5742 34.2409C35.5742 35.2067 35.5677 36.1714 35.5589 37.135C34.7631 36.9963 33.9505 36.9827 33.1505 37.0945C33.0204 36.3706 32.8628 35.6518 32.678 34.9398C32.4308 33.9708 30.987 34.3809 31.2375 35.3533C31.4212 36.0522 31.5711 36.7478 31.6947 37.4533C31.6313 37.4773 31.5623 37.4894 31.5 37.5178C29.4744 38.3195 28.2384 40.3638 29.7205 42.2702C30.4106 43.1583 31.313 43.517 32.3006 43.6362C32.3542 44.952 32.3881 46.2689 32.4264 47.5836C31.7647 47.1538 31.162 46.6025 30.6163 46.0195C29.9403 45.3064 28.8848 46.4078 29.5597 47.1198C30.4773 48.0966 31.4409 48.8348 32.4855 49.3073C32.5325 50.4306 32.5992 51.5572 32.7086 52.675C32.8048 53.667 34.3011 53.6725 34.2038 52.675C34.1116 51.7081 34.0434 50.7391 33.9992 49.7689C34.568 49.8673 35.1652 49.8925 35.7995 49.8323C35.8706 50.867 35.9538 51.9017 36.0719 52.9364C36.1397 53.5292 36.7063 53.7622 37.1241 53.6419L37.0311 55.79C36.3727 55.8491 35.7011 55.9037 35.0011 55.9497L34.1677 56.0044L34.6117 56.7219C34.6566 56.7941 35.1608 57.5914 36.2862 58.7519H34.7419V58.7497ZM61.9631 51.5506C60.5883 52.197 58.8492 52.7898 57.0773 53.3072C55.988 52.1817 54.5945 50.68 53.5544 49.3478C55.872 48.6456 57.1692 47.9216 57.7544 47.5311C58.217 47.9391 58.8295 48.1512 59.5547 48.1502C59.7953 48.1502 60.0086 48.1272 60.1727 48.1009C60.6977 48.7812 61.5442 49.5666 62.0736 50.0358C61.8231 50.2928 61.7017 50.5772 61.7116 50.8845C61.7203 51.147 61.8253 51.3702 61.9631 51.5506ZM54.1373 55.1447C54.3605 55.3416 54.5912 55.5428 54.8264 55.7463C50.3923 56.922 47.0925 57.05 46.3739 57.062C41.7823 54.2609 39.4023 51.2969 38.4847 49.9625C42.327 49.8662 45.5033 49.5184 48.1523 49.0394C48.2601 49.1717 48.3691 49.3029 48.4794 49.4331C46.3502 49.7647 44.2042 49.9776 42.0514 50.0708L41.1688 50.108L41.6544 50.8506C41.6533 50.8517 41.5548 51.0355 40.903 51.1623L39.8431 51.3691L45.0538 55.5877L45.2966 55.522C45.302 55.5209 45.7614 55.3973 46.317 55.3973C47.1188 55.3973 47.6667 55.6412 47.9423 56.1181L48.1173 56.42L48.4575 56.3598C50.3627 56.0125 52.2568 55.6073 54.1373 55.1447ZM38.7188 51.9302L37.4741 51.8623C37.4161 51.2411 37.3581 50.6198 37.3144 49.9986C37.5331 50.3617 37.9816 51.0442 38.7188 51.9302ZM37.1787 47.9259C37.107 46.4536 37.0636 44.9801 37.0486 43.5061C37.228 43.5127 37.4052 43.5291 37.5736 43.5531C39.5073 43.8462 40.0127 45.9966 38.5033 47.2062C38.1095 47.518 37.6556 47.7466 37.1787 47.9259ZM48.5964 55.3109C48.1064 54.7061 47.3266 54.3889 46.3181 54.3889C45.897 54.3889 45.5262 54.4458 45.2922 54.4917L42.0164 51.8372C42.2887 51.6808 42.4725 51.4828 42.5731 51.24C42.5979 51.1796 42.6169 51.117 42.63 51.053C45.2266 50.9108 47.4141 50.6516 49.2636 50.3344C50.1605 51.3352 51.4784 52.7155 53.2262 54.32C51.0792 54.8308 49.2887 55.1808 48.5964 55.3109ZM35.5523 43.5455C35.5731 45.1303 35.6125 46.7195 35.6967 48.3033C35.5556 48.3252 35.4167 48.3525 35.2778 48.3667C34.8075 48.4203 34.3612 48.3809 33.9369 48.2738C33.8833 46.7425 33.8483 45.208 33.7903 43.6756C34.3787 43.6483 34.9748 43.5903 35.5523 43.5455ZM33.7148 42.1619C33.6465 40.9601 33.5334 39.7612 33.3758 38.5678C34.1007 38.4682 34.838 38.5056 35.5491 38.6783C35.5412 39.7964 35.5394 40.9146 35.5436 42.0328C35.0634 42.0591 34.6073 42.105 34.2059 42.1411C34.0425 42.1538 33.8787 42.1608 33.7148 42.1619ZM32.2142 41.9705C32.1212 41.9453 32.0294 41.9256 31.9342 41.8939C31.4966 41.7456 31.1004 41.4956 30.7781 41.1644C29.8441 40.2927 31.1259 39.4373 31.9342 39.0316C32.0611 40.005 32.1486 40.9872 32.2142 41.9705ZM44.2859 63.2614C39.538 60.8355 36.9906 58.1394 35.9789 56.8903C36.7062 56.8356 37.3942 56.77 38.0756 56.7011L45.8609 61.7542L62.9344 57.0642C54.1297 62.3711 45.4311 63.1794 44.2859 63.2614ZM58.3866 54.6317C58.2466 54.4917 58.0792 54.3255 57.8812 54.1253C59.8237 53.5369 61.7028 52.8544 63.1039 52.1041L63.9559 51.6458L63.0919 51.2061C62.8983 51.1066 62.7091 50.9239 62.7058 50.855C62.708 50.8287 62.7845 50.6887 63.1159 50.4984L63.7481 50.1353L63.1859 49.6672C63.1684 49.653 61.4152 48.1972 60.7994 47.2598L60.5959 46.9536L60.247 47.0553C60.2438 47.0553 59.9441 47.1417 59.5547 47.1417C58.9531 47.1428 58.5025 46.9459 58.2137 46.5588L57.8944 46.1355L57.4941 46.48C57.4733 46.4975 56.2341 47.5136 52.9102 48.4739C52.8007 48.3162 52.6953 48.1558 52.5941 47.9927C56.6245 46.7709 58.6841 45.2922 59.5766 44.4828C61.0094 47.5825 64.4208 50.0795 65.9017 51.0584C63.5226 52.4981 61.0049 53.6952 58.3866 54.6317Z" fill="#FFA31F"/>
<path d="M48.5405 51.5342C47.4501 51.2378 46.2196 51.4402 45.7887 51.9816C45.361 52.5252 45.9013 53.2098 46.9907 53.5084C48.0823 53.8048 49.3116 53.6014 49.7426 53.0589C50.1702 52.5153 49.6321 51.8328 48.5405 51.5342Z" fill="#FFA31F"/>
</svg>
