<svg width="33" height="20" viewBox="0 0 33 20" fill="none" xmlns="http://www.w3.org/2000/svg">
<path d="M2 8.75C1.30964 8.75 0.75 9.30964 0.75 10C0.75 10.6904 1.30964 11.25 2 11.25L2 8.75ZM31.8839 10.8839C32.372 10.3957 32.372 9.60427 31.8839 9.11611L23.9289 1.16116C23.4408 0.673008 22.6493 0.673008 22.1612 1.16116C21.673 1.64932 21.673 2.44078 22.1612 2.92893L29.2322 10L22.1612 17.0711C21.673 17.5592 21.673 18.3507 22.1612 18.8388C22.6493 19.327 23.4408 19.327 23.9289 18.8388L31.8839 10.8839ZM2 11.25L31 11.25L31 8.75L2 8.75L2 11.25Z" fill="#FFA31F"/>
</svg>
