<svg width="70" height="70" viewBox="0 0 70 70" fill="none" xmlns="http://www.w3.org/2000/svg">
<path d="M26.25 43.75L43.75 26.25" stroke="#FFA31F" stroke-width="4" stroke-linecap="round" stroke-linejoin="round"/>
<path d="M27.7083 29.1667C28.5137 29.1667 29.1667 28.5137 29.1667 27.7083C29.1667 26.9029 28.5137 26.25 27.7083 26.25C26.9029 26.25 26.25 26.9029 26.25 27.7083C26.25 28.5137 26.9029 29.1667 27.7083 29.1667Z" fill="#FFA31F" stroke="#FFA31F" stroke-width="4" stroke-linecap="round" stroke-linejoin="round"/>
<path d="M42.2916 43.75C43.0971 43.75 43.75 43.0971 43.75 42.2917C43.75 41.4863 43.0971 40.8334 42.2916 40.8334C41.4862 40.8334 40.8333 41.4863 40.8333 42.2917C40.8333 43.0971 41.4862 43.75 42.2916 43.75Z" fill="#FFA31F" stroke="#FFA31F" stroke-width="4" stroke-linecap="round" stroke-linejoin="round"/>
<path d="M14.5833 21C14.5833 19.2982 15.2594 17.6661 16.4627 16.4627C17.6661 15.2594 19.2982 14.5833 21 14.5833H23.9167C25.611 14.5824 27.2361 13.9113 28.4375 12.7167L30.4792 10.675C31.0755 10.0753 31.7844 9.59946 32.5653 9.27473C33.3461 8.95001 34.1835 8.78284 35.0292 8.78284C35.8749 8.78284 36.7122 8.95001 37.493 9.27473C38.2739 9.59946 38.9829 10.0753 39.5792 10.675L41.6208 12.7167C42.8222 13.9113 44.4474 14.5824 46.1417 14.5833H49.0583C50.7601 14.5833 52.3922 15.2594 53.5956 16.4627C54.799 17.6661 55.475 19.2982 55.475 21V23.9167C55.476 25.611 56.147 27.2361 57.3417 28.4375L59.3833 30.4792C59.983 31.0755 60.4589 31.7844 60.7836 32.5653C61.1083 33.3461 61.2755 34.1835 61.2755 35.0292C61.2755 35.8749 61.1083 36.7122 60.7836 37.493C60.4589 38.2739 59.983 38.9829 59.3833 39.5792L57.3417 41.6208C56.147 42.8222 55.476 44.4474 55.475 46.1417V49.0583C55.475 50.7601 54.799 52.3922 53.5956 53.5956C52.3922 54.799 50.7601 55.475 49.0583 55.475H46.1417C44.4474 55.476 42.8222 56.147 41.6208 57.3417L39.5792 59.3833C38.9829 59.983 38.2739 60.4589 37.493 60.7836C36.7122 61.1083 35.8749 61.2755 35.0292 61.2755C34.1835 61.2755 33.3461 61.1083 32.5653 60.7836C31.7844 60.4589 31.0755 59.983 30.4792 59.3833L28.4375 57.3417C27.2361 56.147 25.611 55.476 23.9167 55.475H21C19.2982 55.475 17.6661 54.799 16.4627 53.5956C15.2594 52.3922 14.5833 50.7601 14.5833 49.0583V46.1417C14.5824 44.4474 13.9113 42.8222 12.7167 41.6208L10.675 39.5792C10.0753 38.9829 9.59946 38.2739 9.27473 37.493C8.95001 36.7122 8.78284 35.8749 8.78284 35.0292C8.78284 34.1835 8.95001 33.3461 9.27473 32.5653C9.59946 31.7844 10.0753 31.0755 10.675 30.4792L12.7167 28.4375C13.9113 27.2361 14.5824 25.611 14.5833 23.9167V21" stroke="#FFA31F" stroke-width="4" stroke-linecap="round" stroke-linejoin="round"/>
</svg>
