<svg width="638" height="405" viewBox="0 0 638 405" fill="none" xmlns="http://www.w3.org/2000/svg">
<g filter="url(#filter0_d_41_798)">
<rect x="79" y="87" width="452" height="249.612" rx="26.9851" fill="url(#paint0_linear_41_798)"/>
<g filter="url(#filter1_b_41_798)">
<rect x="79" y="87" width="452" height="249.612" rx="26.9851" fill="white" fill-opacity="0.03"/>
</g>
<path fill-rule="evenodd" clip-rule="evenodd" d="M105.885 87.0005C91.0275 87.0545 79 99.1154 79 113.985V309.627C79 324.531 91.0816 336.612 105.985 336.612H243.093C240.76 332.579 236.4 329.866 231.406 329.866H160.72C156.994 329.866 153.973 326.846 153.973 323.12C153.973 319.394 156.994 316.374 160.72 316.374H197.907C205.359 316.374 211.4 310.333 211.4 302.881C211.4 295.429 205.359 289.389 197.907 289.389H160.72C156.994 289.389 153.973 286.368 153.973 282.642C153.973 278.916 156.994 275.896 160.72 275.896H338.283C345.734 275.896 351.775 269.855 351.775 262.403C351.775 254.952 345.734 248.911 338.283 248.911H160.72C156.994 248.911 153.973 245.891 153.973 242.165C153.973 238.439 156.994 235.418 160.72 235.418H389.328C396.78 235.418 402.821 229.378 402.821 221.926C402.821 214.474 396.78 208.433 389.328 208.433H160.72C156.994 208.433 153.973 205.413 153.973 201.687C153.973 197.961 156.994 194.941 160.72 194.941H253.738C261.19 194.941 267.231 188.9 267.231 181.448C267.231 173.997 261.19 167.956 253.738 167.956H160.72C156.994 167.956 153.973 164.935 153.973 161.209C153.973 157.484 156.994 154.463 160.72 154.463H306.379C313.831 154.463 319.872 148.422 319.872 140.971C319.872 133.519 313.831 127.478 306.379 127.478H160.72C156.994 127.478 153.973 124.458 153.973 120.732C153.973 117.006 156.994 113.986 160.72 113.986H204.288C211.74 113.986 217.78 107.945 217.78 100.493C217.78 93.0413 211.74 87.0005 204.288 87.0005H105.885Z" fill="white" fill-opacity="0.04"/>
<path d="M112.699 295.848L116.844 290.192L112.807 284.709H114.879L116.563 287.062L117.902 288.918H117.988L119.283 287.062L120.946 284.709H122.932L118.852 290.17L123.04 295.848H120.967L119.089 293.236L117.815 291.466H117.729L116.498 293.236L114.685 295.848H112.699ZM125.643 295.848L129.788 290.192L125.751 284.709H127.824L129.508 287.062L130.846 288.918H130.932L132.228 287.062L133.89 284.709H135.876L131.796 290.17L135.984 295.848H133.912L132.033 293.236L130.76 291.466H130.673L129.443 293.236L127.629 295.848H125.643ZM138.588 295.848L142.733 290.192L138.696 284.709H140.768L142.452 287.062L143.79 288.918H143.877L145.172 287.062L146.834 284.709H148.821L144.74 290.17L148.928 295.848H146.856L144.978 293.236L143.704 291.466H143.618L142.387 293.236L140.574 295.848H138.588ZM151.532 295.848L155.677 290.192L151.64 284.709H153.713L155.396 287.062L156.735 288.918H156.821L158.117 287.062L159.779 284.709H161.765L157.685 290.17L161.873 295.848H159.8L157.922 293.236L156.649 291.466H156.562L155.332 293.236L153.518 295.848H151.532ZM179.45 290.192V288.379H185.711V290.192H179.45ZM203.31 295.848L207.455 290.192L203.418 284.709H205.49L207.174 287.062L208.512 288.918H208.599L209.894 287.062L211.556 284.709H213.543L209.462 290.17L213.65 295.848H211.578L209.7 293.236L208.426 291.466H208.34L207.109 293.236L205.296 295.848H203.31ZM216.254 295.848L220.399 290.192L216.362 284.709H218.435L220.118 287.062L221.457 288.918H221.543L222.839 287.062L224.501 284.709H226.487L222.407 290.17L226.595 295.848H224.522L222.644 293.236L221.371 291.466H221.284L220.054 293.236L218.24 295.848H216.254ZM229.199 295.848L233.343 290.192L229.307 284.709H231.379L233.063 287.062L234.401 288.918H234.488L235.783 287.062L237.445 284.709H239.431L235.351 290.17L239.539 295.848H237.467L235.589 293.236L234.315 291.466H234.229L232.998 293.236L231.185 295.848H229.199ZM242.143 295.848L246.288 290.192L242.251 284.709H244.323L246.007 287.062L247.346 288.918H247.432L248.727 287.062L250.39 284.709H252.376L248.296 290.17L252.484 295.848H250.411L248.533 293.236L247.259 291.466H247.173L245.942 293.236L244.129 295.848H242.143ZM270.061 290.192V288.379H276.322V290.192H270.061ZM293.921 295.848L298.066 290.192L294.029 284.709H296.101L297.785 287.062L299.123 288.918H299.21L300.505 287.062L302.167 284.709H304.153L300.073 290.17L304.261 295.848H302.189L300.311 293.236L299.037 291.466H298.951L297.72 293.236L295.907 295.848H293.921ZM306.865 295.848L311.01 290.192L306.973 284.709H309.045L310.729 287.062L312.068 288.918H312.154L313.449 287.062L315.112 284.709H317.098L313.018 290.17L317.206 295.848H315.133L313.255 293.236L311.981 291.466H311.895L310.665 293.236L308.851 295.848H306.865ZM319.809 295.848L323.954 290.192L319.917 284.709H321.99L323.674 287.062L325.012 288.918H325.098L326.394 287.062L328.056 284.709H330.042L325.962 290.17L330.15 295.848H328.078L326.199 293.236L324.926 291.466H324.839L323.609 293.236L321.796 295.848H319.809ZM332.754 295.848L336.899 290.192L332.862 284.709H334.934L336.618 287.062L337.957 288.918H338.043L339.338 287.062L341 284.709H342.987L338.906 290.17L343.094 295.848H341.022L339.144 293.236L337.87 291.466H337.784L336.553 293.236L334.74 295.848H332.754ZM360.672 290.192V288.379H366.932V290.192H360.672ZM384.531 295.848L388.676 290.192L384.639 284.709H386.712L388.396 287.062L389.734 288.918H389.821L391.116 287.062L392.778 284.709H394.764L390.684 290.17L394.872 295.848H392.8L390.922 293.236L389.648 291.466H389.561L388.331 293.236L386.518 295.848H384.531ZM397.476 295.848L401.621 290.192L397.584 284.709H399.656L401.34 287.062L402.679 288.918H402.765L404.06 287.062L405.722 284.709H407.709L403.628 290.17L407.817 295.848H405.744L403.866 293.236L402.592 291.466H402.506L401.275 293.236L399.462 295.848H397.476ZM410.42 295.848L414.565 290.192L410.528 284.709H412.601L414.284 287.062L415.623 288.918H415.709L417.005 287.062L418.667 284.709H420.653L416.573 290.17L420.761 295.848H418.688L416.81 293.236L415.537 291.466H415.45L414.22 293.236L412.406 295.848H410.42ZM423.365 295.848L427.51 290.192L423.473 284.709H425.545L427.229 287.062L428.567 288.918H428.654L429.949 287.062L431.611 284.709H433.597L429.517 290.17L433.705 295.848H431.633L429.755 293.236L428.481 291.466H428.395L427.164 293.236L425.351 295.848H423.365Z" fill="white"/>
<path d="M121.744 248.397V259.558C121.744 260.192 121.636 260.767 121.421 261.285C121.205 261.804 120.895 262.242 120.492 262.602C120.104 262.962 119.636 263.243 119.089 263.444C118.542 263.631 117.945 263.725 117.297 263.725C116.146 263.725 115.196 263.43 114.448 262.84C113.699 262.235 113.21 261.393 112.98 260.314L114.707 259.947C114.779 260.249 114.872 260.537 114.987 260.81C115.117 261.07 115.282 261.3 115.484 261.501C115.7 261.688 115.959 261.84 116.261 261.955C116.563 262.07 116.923 262.127 117.34 262.127C118.161 262.127 118.794 261.897 119.24 261.437C119.701 260.962 119.931 260.228 119.931 259.235V249.973H114.491V248.397H121.744ZM130.803 263.725C130.026 263.725 129.321 263.588 128.687 263.315C128.068 263.041 127.536 262.653 127.09 262.149C126.658 261.631 126.327 261.019 126.097 260.314C125.866 259.594 125.751 258.788 125.751 257.896C125.751 257.018 125.866 256.219 126.097 255.5C126.327 254.78 126.658 254.169 127.09 253.665C127.536 253.147 128.068 252.751 128.687 252.477C129.321 252.204 130.026 252.067 130.803 252.067C131.58 252.067 132.278 252.204 132.897 252.477C133.53 252.751 134.063 253.147 134.494 253.665C134.941 254.169 135.279 254.78 135.509 255.5C135.739 256.219 135.855 257.018 135.855 257.896C135.855 258.788 135.739 259.594 135.509 260.314C135.279 261.019 134.941 261.631 134.494 262.149C134.063 262.653 133.53 263.041 132.897 263.315C132.278 263.588 131.58 263.725 130.803 263.725ZM130.803 262.235C131.767 262.235 132.544 261.947 133.134 261.372C133.724 260.796 134.02 259.904 134.02 258.695V257.097C134.02 255.888 133.724 254.996 133.134 254.42C132.544 253.845 131.767 253.557 130.803 253.557C129.839 253.557 129.061 253.845 128.471 254.42C127.881 254.996 127.586 255.888 127.586 257.097V258.695C127.586 259.904 127.881 260.796 128.471 261.372C129.061 261.947 129.839 262.235 130.803 262.235ZM139.387 247.491H141.114V254.14H141.2C141.315 253.866 141.459 253.607 141.632 253.363C141.804 253.104 142.013 252.88 142.258 252.693C142.517 252.506 142.819 252.355 143.164 252.24C143.51 252.125 143.913 252.067 144.373 252.067C145.539 252.067 146.475 252.442 147.18 253.19C147.885 253.924 148.238 254.967 148.238 256.32V263.466H146.511V256.622C146.511 255.601 146.288 254.845 145.841 254.356C145.395 253.852 144.74 253.6 143.877 253.6C143.531 253.6 143.193 253.643 142.862 253.73C142.531 253.816 142.236 253.945 141.977 254.118C141.718 254.291 141.509 254.514 141.351 254.787C141.193 255.061 141.114 255.377 141.114 255.737V263.466H139.387V247.491ZM152.331 263.466V252.326H154.058V254.14H154.144C154.259 253.866 154.403 253.607 154.576 253.363C154.749 253.104 154.957 252.88 155.202 252.693C155.461 252.506 155.763 252.355 156.109 252.24C156.454 252.125 156.857 252.067 157.318 252.067C158.484 252.067 159.419 252.442 160.124 253.19C160.829 253.924 161.182 254.967 161.182 256.32V263.466H159.455V256.622C159.455 255.601 159.232 254.845 158.786 254.356C158.34 253.852 157.685 253.6 156.821 253.6C156.476 253.6 156.138 253.643 155.807 253.73C155.476 253.816 155.181 253.945 154.921 254.118C154.662 254.291 154.454 254.514 154.295 254.787C154.137 255.061 154.058 255.377 154.058 255.737V263.466H152.331Z" fill="white"/>
<path opacity="0.9" d="M119.672 149.103C118.621 149.103 117.664 148.93 116.801 148.585C115.937 148.24 115.196 147.736 114.577 147.074C113.958 146.412 113.476 145.599 113.131 144.634C112.8 143.656 112.634 142.54 112.634 141.288C112.634 140.036 112.821 138.928 113.195 137.964C113.584 136.985 114.102 136.165 114.75 135.503C115.397 134.841 116.153 134.337 117.017 133.991C117.88 133.646 118.801 133.473 119.78 133.473C120.399 133.473 120.953 133.517 121.442 133.603C121.946 133.689 122.378 133.79 122.737 133.905C123.112 134.02 123.414 134.135 123.644 134.251C123.874 134.366 124.033 134.452 124.119 134.51L123.515 136.237C123.385 136.15 123.198 136.057 122.953 135.956C122.709 135.855 122.428 135.755 122.111 135.654C121.809 135.553 121.471 135.474 121.097 135.416C120.737 135.344 120.37 135.308 119.996 135.308C119.204 135.308 118.492 135.445 117.858 135.719C117.225 135.992 116.686 136.388 116.239 136.906C115.793 137.424 115.448 138.057 115.203 138.806C114.973 139.54 114.858 140.367 114.858 141.288C114.858 142.181 114.959 142.994 115.16 143.728C115.376 144.462 115.692 145.095 116.11 145.627C116.527 146.146 117.045 146.549 117.664 146.836C118.297 147.124 119.031 147.268 119.866 147.268C120.83 147.268 121.629 147.167 122.262 146.966C122.896 146.764 123.371 146.585 123.687 146.426L124.227 148.153C124.126 148.225 123.946 148.319 123.687 148.434C123.428 148.535 123.104 148.635 122.716 148.736C122.327 148.837 121.874 148.923 121.356 148.995C120.838 149.067 120.276 149.103 119.672 149.103ZM130.641 137.316C130.814 137.316 131.008 137.33 131.224 137.359C131.454 137.374 131.677 137.402 131.893 137.446C132.109 137.474 132.303 137.51 132.476 137.554C132.663 137.582 132.8 137.611 132.886 137.64L132.541 139.388C132.383 139.331 132.116 139.266 131.742 139.194C131.382 139.108 130.915 139.065 130.339 139.065C129.965 139.065 129.591 139.108 129.216 139.194C128.857 139.266 128.619 139.317 128.504 139.345V148.779H126.496V138.028C126.971 137.856 127.561 137.697 128.266 137.554C128.972 137.395 129.763 137.316 130.641 137.316ZM134.198 143.188C134.198 142.195 134.342 141.331 134.629 140.597C134.917 139.849 135.299 139.23 135.774 138.741C136.248 138.252 136.795 137.885 137.414 137.64C138.033 137.395 138.666 137.273 139.314 137.273C140.825 137.273 141.984 137.748 142.79 138.698C143.596 139.633 143.999 141.065 143.999 142.994C143.999 143.08 143.999 143.195 143.999 143.339C143.999 143.469 143.991 143.591 143.977 143.706H136.292C136.378 144.872 136.716 145.757 137.306 146.361C137.896 146.966 138.817 147.268 140.07 147.268C140.775 147.268 141.365 147.211 141.84 147.095C142.329 146.966 142.696 146.844 142.941 146.728L143.221 148.412C142.977 148.542 142.545 148.679 141.926 148.822C141.322 148.966 140.631 149.038 139.854 149.038C138.875 149.038 138.026 148.894 137.306 148.607C136.601 148.304 136.018 147.894 135.558 147.376C135.097 146.858 134.752 146.246 134.521 145.541C134.306 144.821 134.198 144.037 134.198 143.188ZM141.905 142.087C141.919 141.18 141.689 140.439 141.214 139.863C140.753 139.273 140.113 138.978 139.292 138.978C138.832 138.978 138.422 139.072 138.062 139.259C137.716 139.432 137.421 139.662 137.177 139.95C136.932 140.238 136.738 140.569 136.594 140.943C136.464 141.317 136.378 141.698 136.335 142.087H141.905ZM154.136 139.928C153.892 139.727 153.539 139.532 153.078 139.345C152.618 139.158 152.114 139.065 151.567 139.065C150.992 139.065 150.495 139.173 150.078 139.388C149.675 139.59 149.344 139.878 149.085 140.252C148.826 140.612 148.638 141.044 148.523 141.547C148.408 142.051 148.351 142.591 148.351 143.166C148.351 144.476 148.674 145.491 149.322 146.21C149.97 146.916 150.833 147.268 151.913 147.268C152.46 147.268 152.913 147.247 153.273 147.203C153.647 147.146 153.935 147.088 154.136 147.031V139.928ZM154.136 132.372L156.144 132.027V148.455C155.683 148.585 155.093 148.715 154.374 148.844C153.654 148.974 152.827 149.038 151.891 149.038C151.028 149.038 150.25 148.902 149.56 148.628C148.869 148.355 148.279 147.966 147.789 147.462C147.3 146.959 146.919 146.347 146.645 145.627C146.386 144.893 146.257 144.073 146.257 143.166C146.257 142.303 146.365 141.511 146.58 140.792C146.811 140.072 147.142 139.453 147.573 138.935C148.005 138.417 148.531 138.014 149.149 137.726C149.783 137.438 150.502 137.294 151.308 137.294C151.956 137.294 152.524 137.381 153.014 137.554C153.517 137.726 153.892 137.892 154.136 138.05V132.372ZM161.603 148.779H159.595V137.554H161.603V148.779ZM160.588 135.524C160.228 135.524 159.919 135.409 159.66 135.179C159.415 134.934 159.293 134.61 159.293 134.207C159.293 133.804 159.415 133.488 159.66 133.257C159.919 133.013 160.228 132.89 160.588 132.89C160.948 132.89 161.25 133.013 161.495 133.257C161.754 133.488 161.883 133.804 161.883 134.207C161.883 134.61 161.754 134.934 161.495 135.179C161.25 135.409 160.948 135.524 160.588 135.524ZM166.934 137.554H171.186V139.237H166.934V144.419C166.934 144.98 166.977 145.448 167.063 145.822C167.149 146.182 167.279 146.469 167.452 146.685C167.624 146.887 167.84 147.031 168.099 147.117C168.358 147.203 168.661 147.247 169.006 147.247C169.61 147.247 170.093 147.182 170.452 147.052C170.827 146.908 171.086 146.808 171.23 146.75L171.618 148.412C171.417 148.513 171.064 148.635 170.56 148.779C170.057 148.938 169.481 149.017 168.833 149.017C168.071 149.017 167.437 148.923 166.934 148.736C166.444 148.535 166.048 148.24 165.746 147.851C165.444 147.462 165.228 146.987 165.099 146.426C164.983 145.851 164.926 145.188 164.926 144.44V134.423L166.934 134.078V137.554Z" fill="white"/>
<g clip-path="url(#clip0_41_798)">
<circle cx="454.093" cy="151.685" r="20.2388" fill="#EB001B"/>
<circle cx="478.379" cy="151.685" r="20.2388" fill="#F79E1B"/>
<path fill-rule="evenodd" clip-rule="evenodd" d="M466.236 167.876C471.823 164.644 475.582 158.604 475.582 151.685C475.582 144.767 471.823 138.726 466.236 135.494C460.649 138.726 456.89 144.767 456.89 151.685C456.89 158.604 460.649 164.644 466.236 167.876Z" fill="#FF5F00"/>
</g>
</g>
<defs>
<filter id="filter0_d_41_798" x="-28" y="0" width="666" height="463.612" filterUnits="userSpaceOnUse" color-interpolation-filters="sRGB">
<feFlood flood-opacity="0" result="BackgroundImageFix"/>
<feColorMatrix in="SourceAlpha" type="matrix" values="0 0 0 0 0 0 0 0 0 0 0 0 0 0 0 0 0 0 127 0" result="hardAlpha"/>
<feOffset dy="20"/>
<feGaussianBlur stdDeviation="53.5"/>
<feComposite in2="hardAlpha" operator="out"/>
<feColorMatrix type="matrix" values="0 0 0 0 0 0 0 0 0 0 0 0 0 0 0 0 0 0 0.25 0"/>
<feBlend mode="normal" in2="BackgroundImageFix" result="effect1_dropShadow_41_798"/>
<feBlend mode="normal" in="SourceGraphic" in2="effect1_dropShadow_41_798" result="shape"/>
</filter>
<filter id="filter1_b_41_798" x="-28.9403" y="-20.9403" width="667.881" height="465.492" filterUnits="userSpaceOnUse" color-interpolation-filters="sRGB">
<feFlood flood-opacity="0" result="BackgroundImageFix"/>
<feGaussianBlur in="BackgroundImage" stdDeviation="53.9701"/>
<feComposite in2="SourceAlpha" operator="in" result="effect1_backgroundBlur_41_798"/>
<feBlend mode="normal" in="SourceGraphic" in2="effect1_backgroundBlur_41_798" result="shape"/>
</filter>
<linearGradient id="paint0_linear_41_798" x1="14.2358" y1="60.0149" x2="594.415" y2="364.272" gradientUnits="userSpaceOnUse">
<stop offset="0.122247" stop-color="#064A7D"/>
<stop offset="0.878935" stop-color="#642401"/>
</linearGradient>
<clipPath id="clip0_41_798">
<rect width="64.7642" height="64.7642" fill="white" transform="translate(433.854 119.382)"/>
</clipPath>
</defs>
</svg>
