<svg width="127" height="127" viewBox="0 0 127 127" fill="none" xmlns="http://www.w3.org/2000/svg">
<path d="M117.189 80.4069H114.363V61.369C114.363 59.1324 113.463 56.9838 111.873 55.3988L94.23 37.8051C92.6405 36.2201 90.4859 35.3219 88.243 35.3219H80.4545V26.8684C80.4545 22.2014 76.6574 18.415 71.9772 18.415H26.7652C22.0851 18.415 18.288 22.2014 18.288 26.8684V35.3219H8.39786C7.62078 35.3219 6.98499 35.9559 6.98499 36.7308V39.5486C6.98499 40.3235 7.62078 40.9575 8.39786 40.9575H56.4356C57.2127 40.9575 57.8485 41.5915 57.8485 42.3664V45.1842C57.8485 45.9591 57.2127 46.5931 56.4356 46.5931H14.0494C13.2723 46.5931 12.6365 47.2271 12.6365 48.002V50.8199C12.6365 51.5948 13.2723 52.2288 14.0494 52.2288H50.7841C51.5612 52.2288 52.197 52.8628 52.197 53.6377V56.4555C52.197 57.2304 51.5612 57.8644 50.7841 57.8644H8.39786C7.62078 57.8644 6.98499 58.4984 6.98499 59.2733V62.0911C6.98499 62.866 7.62078 63.5 8.39786 63.5H45.1326C45.9097 63.5 46.5455 64.134 46.5455 64.9089V67.7267C46.5455 68.5016 45.9097 69.1356 45.1326 69.1356H18.288V91.6781C18.288 101.012 25.8822 108.585 35.2425 108.585C44.6028 108.585 52.197 101.012 52.197 91.6781H74.803C74.803 101.012 82.3972 108.585 91.7575 108.585C101.118 108.585 108.712 101.012 108.712 91.6781H117.189C118.743 91.6781 120.015 90.4101 120.015 88.8603V83.2247C120.015 81.6749 118.743 80.4069 117.189 80.4069ZM35.2425 100.132C30.5623 100.132 26.7652 96.3451 26.7652 91.6781C26.7652 87.0111 30.5623 83.2247 35.2425 83.2247C39.9226 83.2247 43.7197 87.0111 43.7197 91.6781C43.7197 96.3451 39.9226 100.132 35.2425 100.132ZM91.7575 100.132C87.0773 100.132 83.2802 96.3451 83.2802 91.6781C83.2802 87.0111 87.0773 83.2247 91.7575 83.2247C96.4376 83.2247 100.235 87.0111 100.235 91.6781C100.235 96.3451 96.4376 100.132 91.7575 100.132ZM105.886 63.5H80.4545V43.7753H88.243L105.886 61.369V63.5Z" fill="#9A9A9A"/>
</svg>
