<svg width="70" height="70" viewBox="0 0 70 70" fill="none" xmlns="http://www.w3.org/2000/svg">
<path fill-rule="evenodd" clip-rule="evenodd" d="M8.77625 36.1681L3.4125 41.5625L0 38.1937L9.14375 29.1375L12.4688 29.1812L21.6125 38.4562L18.2875 41.7812L13.1819 36.6187C13.5297 41.3483 15.4051 45.8367 18.5256 49.4078C21.646 52.9789 25.8424 55.4393 30.4826 56.4181C35.1229 57.397 39.9555 56.8415 44.2525 54.8351C48.5496 52.8288 52.0782 49.4804 54.3069 45.2944L57.8638 47.9062C55.0623 52.8723 50.7202 56.7912 45.4938 59.0704C40.2674 61.3496 34.4411 61.8652 28.8957 60.5391C23.3503 59.2131 18.3874 56.1175 14.7575 51.7206C11.1276 47.3236 9.02804 41.8643 8.77625 36.1681ZM56.8575 34.1294L51.45 28.6562L48.125 31.9812L57.2687 41.2125L60.5938 41.2562L69.7375 32.2L66.4562 28.875L61.2325 34.0375C61.0276 28.4044 59.015 22.987 55.4923 18.5865C51.9696 14.1861 47.124 11.0365 41.6724 9.60369C36.2208 8.17086 30.4528 8.53093 25.2217 10.6306C19.9906 12.7303 15.5743 16.4581 12.6262 21.2625L16.17 23.8612C18.5731 19.7969 22.2267 16.6193 26.585 14.803C30.9432 12.9867 35.7722 12.6293 40.3503 13.7842C44.9285 14.939 49.0101 17.5442 51.9854 21.2104C54.9606 24.8767 56.6698 29.4071 56.8575 34.125V34.1294Z" fill="#FFA31F"/>
<path d="M36.0984 32.8333C35.2459 32.6167 34.3934 32.1833 33.7541 31.5333C33.1148 31.3167 32.9016 30.6667 32.9016 30.2333C32.9016 29.8 33.1148 29.15 33.541 28.9333C34.1803 28.5 34.8197 28.0667 35.459 28.2833C36.7377 28.2833 37.8033 28.9333 38.4426 29.8L40.3607 27.2C39.7213 26.55 39.082 26.1167 38.4426 25.6833C37.8033 25.25 36.9508 25.0333 36.0984 25.0333V22H33.541V25.0333C32.4754 25.25 31.4098 25.9 30.5574 26.7667C29.7049 27.85 29.0656 29.15 29.2787 30.45C29.2787 31.75 29.7049 33.05 30.5574 33.9167C31.623 35 33.1148 35.65 34.3934 36.3C35.0328 36.5167 35.8852 36.95 36.5246 37.3833C36.9508 37.8167 37.1639 38.4667 37.1639 39.1167C37.1639 39.7667 36.9508 40.4167 36.5246 41.0667C35.8852 41.7167 35.0328 41.9333 34.3934 41.9333C33.541 41.9333 32.4754 41.7167 31.8361 41.0667C31.1967 40.6333 30.5574 39.9833 30.1311 39.3333L28 41.7167C28.6393 42.5833 29.2787 43.2333 30.1311 43.8833C31.1967 44.5333 32.4754 45.1833 33.7541 45.1833V48H36.0984V44.75C37.3771 44.5333 38.4426 43.8833 39.2951 43.0167C40.3607 41.9333 41 40.2 41 38.6833C41 37.3833 40.5738 35.8667 39.5082 35C38.4426 33.9167 37.3771 33.2667 36.0984 32.8333Z" fill="#FFA31F"/>
</svg>
