<svg width="70" height="70" viewBox="0 0 70 70" fill="none" xmlns="http://www.w3.org/2000/svg">
<g clip-path="url(#clip0_17_9)">
<path d="M25.8942 55.7084C17.5496 54.9792 10.1879 51.8817 5.39 47.0925C2.66 44.3625 1.00333 41.3992 0.256666 37.9079C-0.0875005 36.3213 -0.0845838 33.6846 0.256666 32.0834C1.29792 27.23 4.43625 22.9834 9.37417 19.7459C20.6383 12.3579 37.8933 12.3959 49.0525 19.8334C50.5342 20.8192 51.4908 21.6038 52.8325 22.925C54.5242 24.5963 55.7142 26.2559 56.9683 28.7C57.015 28.7875 57.2454 28.9042 57.4817 28.9509C58.2692 29.1142 59.3279 29.7325 60.1767 30.5259C60.8358 31.1384 61.3463 31.8092 62.6033 33.7138C63.8721 35.6329 69.615 44.4967 69.965 45.0771C70.0992 45.3046 69.8308 45.6663 69.5275 45.6663C69.3146 45.6663 69.16 45.5204 68.845 45.0246L65.59 39.9729C60.0483 31.3921 59.7479 30.9954 58.205 30.2225L57.3942 29.8142H55.0113C52.6313 29.8142 52.6283 29.8171 52.57 30.0679C52.255 31.4388 52.1967 31.7771 52.2667 31.8413C52.3104 31.8821 53.6608 32.6521 55.2708 33.5504L58.1933 35.1896L58.0125 35.5717C57.9104 35.7817 57.7967 35.9567 57.7558 35.9567C57.715 35.9567 55.2533 34.5917 52.2871 32.9263C49.3179 31.2638 46.7162 29.8521 46.5062 29.7938C45.6604 29.5604 44.3654 30.4938 44.3654 31.3367C44.3654 32.1884 44.6192 32.4392 49.8312 36.7063C53.0833 39.3721 54.9442 40.9704 55.2271 41.3496C55.7463 42.0379 56.2683 43.0529 56.7525 44.3013C57.5983 46.5004 58.9779 47.7254 61.2383 48.2913L61.9821 48.4779L61.9208 48.8863C61.9035 49.0427 61.8673 49.1965 61.8129 49.3442C61.7167 49.4521 60.2175 48.9738 59.3513 48.5567C57.995 47.9063 57.0617 46.9788 56.1458 45.3659C55.747 45.4858 55.353 45.621 54.9646 45.7713C53.8242 46.1854 53.7688 46.2204 52.6896 47.2734C48.0929 51.7592 41.5012 54.6263 33.5387 55.6004C32.2467 55.7609 27.2679 55.8309 25.8942 55.7084ZM33.8187 54.3288C37.4704 53.8446 40.3025 53.1213 43.2687 51.9079C46.3808 50.6334 49.315 48.8017 51.3683 46.8534L52.1763 46.0834L50.1404 45.1121C47.9646 44.0709 47.7487 43.8988 47.4717 42.9684C47.2967 42.385 47.495 41.7579 48.0492 41.1571L48.4837 40.6875L47.5388 39.97C46.7921 39.4013 46.5588 39.1534 46.4129 38.7742C46.2984 38.4793 46.2594 38.1604 46.2997 37.8466C46.3399 37.5327 46.4581 37.234 46.6433 36.9775L46.9292 36.575L43.9454 36.05C42.8071 35.8599 41.6731 35.6441 40.5446 35.4025C40.2966 35.3063 40.0749 35.1528 39.8975 34.9546C39.7202 34.7564 39.5921 34.5192 39.5237 34.2621C39.4596 33.9938 40.9237 26.8538 41.2504 25.8329C41.3645 25.5703 41.5349 25.3359 41.7497 25.1464C41.9644 24.9569 42.2181 24.8169 42.4929 24.7363C42.9858 24.6459 51.7825 26.1917 52.22 26.4484C52.9142 26.8509 53.1329 27.5042 52.9142 28.5046L52.8208 28.9246H53.3079C53.5763 28.9246 54.2121 28.8896 54.7167 28.8517L55.6383 28.7788L55.1804 27.9329C53.7979 25.3604 51.3013 22.7763 48.2154 20.7229C46.7746 19.7663 43.7033 18.2525 41.8542 17.5904C38.9814 16.595 36.0032 15.9353 32.9787 15.6246C31.3017 15.4496 26.9062 15.4496 25.2787 15.6275C21.3733 16.0534 17.8296 16.9371 14.7292 18.2584C7.55417 21.3179 2.72708 26.3842 1.49333 32.1621C1.1725 33.67 1.14333 36.3125 1.44083 37.6863C2.09417 40.7196 3.52042 43.3475 5.84208 45.7946C10.5671 50.7734 17.7917 53.8329 26.4513 54.5271C27.6092 54.6175 32.6375 54.4834 33.8187 54.3288ZM32.235 48.8921C31.7887 48.7638 31.3367 48.23 31.2433 47.7254C31.1792 47.3929 31.255 47.1654 31.7275 46.2496C33.6408 42.5454 34.4721 39.1417 34.4721 35.0059C34.4721 31.01 33.7371 27.9038 31.9083 24.1763C31.5146 23.3771 31.1937 22.6334 31.1937 22.5284C31.1937 22.1317 31.5262 21.5571 31.885 21.3325C32.3779 21.0204 33.2033 21.0788 33.6 21.4492C33.7517 21.595 34.1454 22.2396 34.475 22.89C35.7846 25.4567 36.68 28.2771 37.1233 31.2113C37.3975 33.0284 37.4529 36.47 37.2342 38.1325C36.8665 41.0786 36.0192 43.9447 34.7258 46.6171C33.9383 48.2359 33.4483 48.9038 33.0342 48.9038C32.9346 48.9063 32.8356 48.921 32.7396 48.9475C32.5694 48.9644 32.3975 48.9455 32.235 48.8921ZM26.9092 46.1067C26.2267 45.9054 25.7308 45.0654 25.9292 44.4354C25.9788 44.2838 26.2996 43.5809 26.6467 42.875C28.092 39.9875 28.7069 36.7553 28.4229 33.5388C28.1779 30.9546 27.7142 29.3242 26.5475 26.9384C25.7629 25.3371 25.7279 25.0892 26.1829 24.4475C26.6146 23.835 27.6967 23.7329 28.2625 24.255C28.6562 24.6167 29.8812 27.1717 30.3508 28.6184C31.9132 33.4149 31.6726 38.6165 29.6742 43.2484C28.6475 45.6575 27.9271 46.4013 26.9092 46.1067ZM21.42 43.2804C21.2015 43.1744 21.0089 43.0218 20.8557 42.8333C20.7025 42.6449 20.5925 42.4252 20.5333 42.1896C20.4721 41.9154 20.5742 41.6121 21.0788 40.5942C22.9221 36.8609 22.9425 33.2617 21.1371 29.6129C20.3467 28.0088 20.3292 27.6909 21 27.0579C21.3296 26.7459 21.4696 26.6904 21.9333 26.6904C22.7121 26.6904 23.1175 27.0842 23.8117 28.5134C24.8821 30.7125 25.3225 32.62 25.3167 35.0642C25.3167 37.5725 24.9054 39.2992 23.7621 41.6179C23.1058 42.945 22.7821 43.295 22.1287 43.3854C21.8875 43.407 21.6446 43.371 21.42 43.2804ZM16.2954 40.6496C15.8992 40.4399 15.6 40.0843 15.4613 39.6579C15.3358 39.2146 15.4379 38.8617 15.9425 38.0334C16.59 36.9688 16.7417 36.4 16.7417 35.0059C16.7417 33.6146 16.59 33.0429 15.9425 31.9784C15.7506 31.6739 15.5866 31.3528 15.4525 31.0188C15.2454 30.3188 15.8288 29.4584 16.6133 29.3096C17.2783 29.1842 17.7362 29.4846 18.3487 30.4384C19.2165 31.8161 19.677 33.4112 19.677 35.0394C19.677 36.6676 19.2165 38.2627 18.3487 39.6404C17.7217 40.6088 17.0246 40.9529 16.2954 40.6496ZM54.4746 44.9459C55.0667 44.7329 55.58 44.5346 55.6121 44.4996C55.6471 44.4675 55.5333 44.0884 55.3583 43.6567C55.0025 42.7759 55.0608 42.7963 53.8008 43.0384C52.4358 43.3009 51.6454 43.0675 50.155 41.9709C49.7467 41.6704 49.3296 41.4254 49.2217 41.4254C49.1167 41.4254 48.8862 41.58 48.7054 41.7725C48.3263 42.1809 48.2679 42.8225 48.5771 43.2017C48.8483 43.5313 52.5933 45.3134 53.0396 45.3221C53.235 45.3279 53.8825 45.1588 54.4746 44.9459ZM53.8854 42.0788C54.4396 41.9679 54.5008 41.93 54.4046 41.7521C54.2996 41.5538 49.1196 37.2546 48.6704 36.9921C48.3 36.7763 47.9996 36.8259 47.6933 37.1554C46.7921 38.1179 46.8971 38.3221 49.2275 40.11C52.0392 42.2625 52.3367 42.3909 53.8854 42.0788ZM46.9321 35.5717C46.9321 35.5425 46.3458 35.0379 45.6254 34.4488C43.8521 32.9875 43.4729 32.4421 43.4729 31.3629C43.4729 30.4588 44.0737 29.5896 45.0421 29.0879C45.6143 28.8312 46.2558 28.7727 46.865 28.9217C47.2092 29.0325 48.755 29.8696 50.8988 31.1034L51.3508 31.3629L51.7242 29.5954C52.1033 27.7871 52.1121 27.3146 51.7592 27.2038C50.2306 26.9112 48.6993 26.6332 47.1654 26.3696C42.8692 25.6113 42.3996 25.5675 42.2012 25.8913C42.0933 26.0663 40.46 33.6379 40.46 33.9617C40.46 34.1221 40.5417 34.3234 40.6408 34.405C40.74 34.4896 42.1342 34.79 43.7383 35.0759C46.8358 35.6329 46.9321 35.6475 46.9321 35.5717Z" fill="#FFA31F"/>
</g>
<defs>
<clipPath id="clip0_17_9">
<rect width="70" height="70" fill="white"/>
</clipPath>
</defs>
</svg>
